<?xml version="1.0" encoding="UTF-8" standalone="no"?>
<!DOCTYPE svg PUBLIC "-//W3C//DTD SVG 1.1//EN"
 "http://www.w3.org/Graphics/SVG/1.1/DTD/svg11.dtd">
<!-- Generated by graphviz version 2.43.0 (0)
 -->
<!-- Title: pigy Pages: 1 -->
<svg width="100%" height="100%"
 viewBox="0.00 0.00 5699.00 1844.00" xmlns="http://www.w3.org/2000/svg" xmlns:xlink="http://www.w3.org/1999/xlink">
<g id="graph0" class="graph" transform="scale(1 1) rotate(0) translate(4 1840)">
<title>pigy</title>
<polygon fill="white" stroke="transparent" points="-4,4 -4,-1840 5695,-1840 5695,4 -4,4"/>
<!-- PIG_2J5mPrtyDcanasMt -->
<g id="node1" class="node">
<title>PIG_2J5mPrtyDcanasMt</title>
<g id="a_node1"><a xlink:href="https://pool.pm/cbf096ed812bdafc8b000886cf7b1ccd4e430e78dc579c7f25a155d3.PIG@2J5mPrtyDcanasMt" xlink:title="PIG@2J5mPrtyDcanasMt\nasset19yvu...umgu2p9a">
<polygon fill="none" stroke="black" points="536,-1368 167,-1368 167,-936 536,-936 536,-1368"/>
<image xlink:href="images/PIG@2J5mPrtyDcanasMt.png" width="369px" height="432px" preserveAspectRatio="xMinYMin meet" x="167" y="-1368"/>
<text text-anchor="middle" x="351.5" y="-1356.8" font-family="Times-Roman" font-size="14.00">PIG@2J5mPrtyDcanasMt</text>
<text text-anchor="middle" x="351.5" y="-1341.8" font-family="Times-Roman" font-size="14.00">asset19yvu...umgu2p9a</text>
</a>
</g>
</g>
<!-- PIG_2Hqisbq19VHxHrQL -->
<g id="node2" class="node">
<title>PIG_2Hqisbq19VHxHrQL</title>
<g id="a_node2"><a xlink:href="https://pool.pm/cbf096ed812bdafc8b000886cf7b1ccd4e430e78dc579c7f25a155d3.PIG@2Hqisbq19VHxHrQL" xlink:title="PIG@2Hqisbq19VHxHrQL\nasset16pj8...kmuyu92r">
<polygon fill="none" stroke="black" points="369,-1836 0,-1836 0,-1404 369,-1404 369,-1836"/>
<image xlink:href="images/PIG@2Hqisbq19VHxHrQL.png" width="369px" height="432px" preserveAspectRatio="xMinYMin meet" x="0" y="-1836"/>
<text text-anchor="middle" x="184.5" y="-1824.8" font-family="Times-Roman" font-size="14.00">PIG@2Hqisbq19VHxHrQL</text>
<text text-anchor="middle" x="184.5" y="-1809.8" font-family="Times-Roman" font-size="14.00">asset16pj8...kmuyu92r</text>
</a>
</g>
</g>
<!-- PIG_2Hqisbq19VHxHrQL&#45;&gt;PIG_2J5mPrtyDcanasMt -->
<g id="edge1" class="edge">
<title>PIG_2Hqisbq19VHxHrQL&#45;&gt;PIG_2J5mPrtyDcanasMt</title>
<path fill="none" stroke="black" d="M261.65,-1403.73C264.75,-1395.06 267.87,-1386.36 270.98,-1377.68"/>
<polygon fill="black" stroke="black" points="274.28,-1378.85 274.36,-1368.26 267.69,-1376.49 274.28,-1378.85"/>
</g>
<!-- PIG_2dq1DS47BSunpEZp -->
<g id="node3" class="node">
<title>PIG_2dq1DS47BSunpEZp</title>
<g id="a_node3"><a xlink:href="https://pool.pm/cbf096ed812bdafc8b000886cf7b1ccd4e430e78dc579c7f25a155d3.PIG@2dq1DS47BSunpEZp" xlink:title="PIG@2dq1DS47BSunpEZp\nasset1yqxd...uvylxwha">
<polygon fill="none" stroke="black" points="756,-1836 387,-1836 387,-1404 756,-1404 756,-1836"/>
<image xlink:href="images/PIG@2dq1DS47BSunpEZp.png" width="369px" height="432px" preserveAspectRatio="xMinYMin meet" x="387" y="-1836"/>
<text text-anchor="middle" x="571.5" y="-1824.8" font-family="Times-Roman" font-size="14.00">PIG@2dq1DS47BSunpEZp</text>
<text text-anchor="middle" x="571.5" y="-1809.8" font-family="Times-Roman" font-size="14.00">asset1yqxd...uvylxwha</text>
</a>
</g>
</g>
<!-- PIG_2dq1DS47BSunpEZp&#45;&gt;PIG_2J5mPrtyDcanasMt -->
<g id="edge2" class="edge">
<title>PIG_2dq1DS47BSunpEZp&#45;&gt;PIG_2J5mPrtyDcanasMt</title>
<path fill="none" stroke="black" d="M469.87,-1403.73C465.74,-1394.97 461.58,-1386.18 457.44,-1377.4"/>
<polygon fill="black" stroke="black" points="460.56,-1375.81 453.12,-1368.26 454.23,-1378.8 460.56,-1375.81"/>
</g>
<!-- PIG_2QHjD8vLyQVu8S2q -->
<g id="node4" class="node">
<title>PIG_2QHjD8vLyQVu8S2q</title>
<g id="a_node4"><a xlink:href="https://pool.pm/cbf096ed812bdafc8b000886cf7b1ccd4e430e78dc579c7f25a155d3.PIG@2QHjD8vLyQVu8S2q" xlink:title="PIG@2QHjD8vLyQVu8S2q\nasset1a87x...va3wtuud">
<polygon fill="none" stroke="black" points="1476,-1368 1107,-1368 1107,-936 1476,-936 1476,-1368"/>
<image xlink:href="images/PIG@2QHjD8vLyQVu8S2q.png" width="369px" height="432px" preserveAspectRatio="xMinYMin meet" x="1107" y="-1368"/>
<text text-anchor="middle" x="1291.5" y="-1356.8" font-family="Times-Roman" font-size="14.00">PIG@2QHjD8vLyQVu8S2q</text>
<text text-anchor="middle" x="1291.5" y="-1341.8" font-family="Times-Roman" font-size="14.00">asset1a87x...va3wtuud</text>
</a>
</g>
</g>
<!-- PIG_2QE8fR941V3A4WDs -->
<g id="node5" class="node">
<title>PIG_2QE8fR941V3A4WDs</title>
<g id="a_node5"><a xlink:href="https://pool.pm/cbf096ed812bdafc8b000886cf7b1ccd4e430e78dc579c7f25a155d3.PIG@2QE8fR941V3A4WDs" xlink:title="PIG@2QE8fR941V3A4WDs\nasset1uzpd...an63043l">
<polygon fill="none" stroke="black" points="1249,-1836 880,-1836 880,-1404 1249,-1404 1249,-1836"/>
<image xlink:href="images/PIG@2QE8fR941V3A4WDs.png" width="369px" height="432px" preserveAspectRatio="xMinYMin meet" x="880" y="-1836"/>
<text text-anchor="middle" x="1064.5" y="-1824.8" font-family="Times-Roman" font-size="14.00">PIG@2QE8fR941V3A4WDs</text>
<text text-anchor="middle" x="1064.5" y="-1809.8" font-family="Times-Roman" font-size="14.00">asset1uzpd...an63043l</text>
</a>
</g>
</g>
<!-- PIG_2QE8fR941V3A4WDs&#45;&gt;PIG_2QHjD8vLyQVu8S2q -->
<g id="edge3" class="edge">
<title>PIG_2QE8fR941V3A4WDs&#45;&gt;PIG_2QHjD8vLyQVu8S2q</title>
<path fill="none" stroke="black" d="M1169.36,-1403.73C1173.63,-1394.97 1177.91,-1386.18 1182.19,-1377.4"/>
<polygon fill="black" stroke="black" points="1185.41,-1378.78 1186.64,-1368.26 1179.12,-1375.72 1185.41,-1378.78"/>
</g>
<!-- PIG_2hpDyjYye4vvx8qb -->
<g id="node16" class="node">
<title>PIG_2hpDyjYye4vvx8qb</title>
<g id="a_node16"><a xlink:href="https://pool.pm/cbf096ed812bdafc8b000886cf7b1ccd4e430e78dc579c7f25a155d3.PIG@2hpDyjYye4vvx8qb" xlink:title="PIG@2hpDyjYye4vvx8qb\nasset1hz39...f4ejn6em">
<polygon fill="none" stroke="black" points="1089,-1368 720,-1368 720,-936 1089,-936 1089,-1368"/>
<image xlink:href="images/PIG@2hpDyjYye4vvx8qb.png" width="369px" height="432px" preserveAspectRatio="xMinYMin meet" x="720" y="-1368"/>
<text text-anchor="middle" x="904.5" y="-1356.8" font-family="Times-Roman" font-size="14.00">PIG@2hpDyjYye4vvx8qb</text>
<text text-anchor="middle" x="904.5" y="-1341.8" font-family="Times-Roman" font-size="14.00">asset1hz39...f4ejn6em</text>
</a>
</g>
</g>
<!-- PIG_2QE8fR941V3A4WDs&#45;&gt;PIG_2hpDyjYye4vvx8qb -->
<g id="edge13" class="edge">
<title>PIG_2QE8fR941V3A4WDs&#45;&gt;PIG_2hpDyjYye4vvx8qb</title>
<path fill="none" stroke="black" d="M990.59,-1403.73C987.64,-1395.16 984.69,-1386.55 981.74,-1377.95"/>
<polygon fill="black" stroke="black" points="984.97,-1376.58 978.41,-1368.26 978.35,-1378.85 984.97,-1376.58"/>
</g>
<!-- PIG_GKJB4GA8wa6FSbu -->
<g id="node6" class="node">
<title>PIG_GKJB4GA8wa6FSbu</title>
<g id="a_node6"><a xlink:href="https://pool.pm/cbf096ed812bdafc8b000886cf7b1ccd4e430e78dc579c7f25a155d3.PIG@GKJB4GA8wa6FSbu" xlink:title="PIG@GKJB4GA8wa6FSbu\nasset1q0mr...a0ff2lax">
<polygon fill="none" stroke="black" points="2129,-1836 1760,-1836 1760,-1404 2129,-1404 2129,-1836"/>
<image xlink:href="images/PIG@GKJB4GA8wa6FSbu.png" width="369px" height="432px" preserveAspectRatio="xMinYMin meet" x="1760" y="-1836"/>
<text text-anchor="middle" x="1944.5" y="-1824.8" font-family="Times-Roman" font-size="14.00">PIG@GKJB4GA8wa6FSbu</text>
<text text-anchor="middle" x="1944.5" y="-1809.8" font-family="Times-Roman" font-size="14.00">asset1q0mr...a0ff2lax</text>
</a>
</g>
</g>
<!-- PIG_GKJB4GA8wa6FSbu&#45;&gt;PIG_2QHjD8vLyQVu8S2q -->
<g id="edge4" class="edge">
<title>PIG_GKJB4GA8wa6FSbu&#45;&gt;PIG_2QHjD8vLyQVu8S2q</title>
<path fill="none" stroke="black" d="M1759.75,-1441.44C1739.67,-1427.36 1718.77,-1414.54 1697.5,-1404 1626.74,-1368.93 1593.7,-1404.17 1523.5,-1368 1510.29,-1361.19 1497.27,-1353.42 1484.56,-1344.96"/>
<polygon fill="black" stroke="black" points="1486.49,-1342.04 1476.26,-1339.31 1482.55,-1347.83 1486.49,-1342.04"/>
</g>
<!-- PIG_2MoECnaKxL1YECSy -->
<g id="node14" class="node">
<title>PIG_2MoECnaKxL1YECSy</title>
<g id="a_node14"><a xlink:href="https://pool.pm/cbf096ed812bdafc8b000886cf7b1ccd4e430e78dc579c7f25a155d3.PIG@2MoECnaKxL1YECSy" xlink:title="PIG@2MoECnaKxL1YECSy\nasset1w2me...awlh0jj9">
<polygon fill="none" stroke="black" points="1902,-1368 1533,-1368 1533,-936 1902,-936 1902,-1368"/>
<image xlink:href="images/PIG@2MoECnaKxL1YECSy.png" width="369px" height="432px" preserveAspectRatio="xMinYMin meet" x="1533" y="-1368"/>
<text text-anchor="middle" x="1717.5" y="-1356.8" font-family="Times-Roman" font-size="14.00">PIG@2MoECnaKxL1YECSy</text>
<text text-anchor="middle" x="1717.5" y="-1341.8" font-family="Times-Roman" font-size="14.00">asset1w2me...awlh0jj9</text>
</a>
</g>
</g>
<!-- PIG_GKJB4GA8wa6FSbu&#45;&gt;PIG_2MoECnaKxL1YECSy -->
<g id="edge12" class="edge">
<title>PIG_GKJB4GA8wa6FSbu&#45;&gt;PIG_2MoECnaKxL1YECSy</title>
<path fill="none" stroke="black" d="M1839.64,-1403.73C1835.37,-1394.97 1831.09,-1386.18 1826.81,-1377.4"/>
<polygon fill="black" stroke="black" points="1829.88,-1375.72 1822.36,-1368.26 1823.59,-1378.78 1829.88,-1375.72"/>
</g>
<!-- PIG_F5PEepBgz8Zczuh -->
<g id="node23" class="node">
<title>PIG_F5PEepBgz8Zczuh</title>
<g id="a_node23"><a xlink:href="https://pool.pm/cbf096ed812bdafc8b000886cf7b1ccd4e430e78dc579c7f25a155d3.PIG@F5PEepBgz8Zczuh" xlink:title="PIG@F5PEepBgz8Zczuh\nasset1le5k...uuy8kel0">
<polygon fill="none" stroke="black" points="2450,-900 2081,-900 2081,-468 2450,-468 2450,-900"/>
<image xlink:href="images/PIG@F5PEepBgz8Zczuh.png" width="369px" height="432px" preserveAspectRatio="xMinYMin meet" x="2081" y="-900"/>
<text text-anchor="middle" x="2265.5" y="-888.8" font-family="Times-Roman" font-size="14.00">PIG@F5PEepBgz8Zczuh</text>
<text text-anchor="middle" x="2265.5" y="-873.8" font-family="Times-Roman" font-size="14.00">asset1le5k...uuy8kel0</text>
</a>
</g>
</g>
<!-- PIG_GKJB4GA8wa6FSbu&#45;&gt;PIG_F5PEepBgz8Zczuh -->
<g id="edge23" class="edge">
<title>PIG_GKJB4GA8wa6FSbu&#45;&gt;PIG_F5PEepBgz8Zczuh</title>
<path fill="none" stroke="black" d="M1978.79,-1403.91C2005.01,-1266.6 2047.51,-1086.73 2110.5,-936 2114.2,-927.14 2118.19,-918.24 2122.41,-909.34"/>
<polygon fill="black" stroke="black" points="2125.68,-910.6 2126.88,-900.07 2119.38,-907.56 2125.68,-910.6"/>
</g>
<!-- PIG_rnUwPTeCq449ScB -->
<g id="node24" class="node">
<title>PIG_rnUwPTeCq449ScB</title>
<g id="a_node24"><a xlink:href="https://pool.pm/cbf096ed812bdafc8b000886cf7b1ccd4e430e78dc579c7f25a155d3.PIG@rnUwPTeCq449ScB" xlink:title="PIG@rnUwPTeCq449ScB\nasset1r7jh...lzgakhc3">
<polygon fill="none" stroke="black" points="2489,-1368 2120,-1368 2120,-936 2489,-936 2489,-1368"/>
<image xlink:href="images/PIG@rnUwPTeCq449ScB.png" width="369px" height="432px" preserveAspectRatio="xMinYMin meet" x="2120" y="-1368"/>
<text text-anchor="middle" x="2304.5" y="-1356.8" font-family="Times-Roman" font-size="14.00">PIG@rnUwPTeCq449ScB</text>
<text text-anchor="middle" x="2304.5" y="-1341.8" font-family="Times-Roman" font-size="14.00">asset1r7jh...lzgakhc3</text>
</a>
</g>
</g>
<!-- PIG_GKJB4GA8wa6FSbu&#45;&gt;PIG_rnUwPTeCq449ScB -->
<g id="edge29" class="edge">
<title>PIG_GKJB4GA8wa6FSbu&#45;&gt;PIG_rnUwPTeCq449ScB</title>
<path fill="none" stroke="black" d="M2110.8,-1403.73C2117.85,-1394.6 2124.94,-1385.44 2132,-1376.29"/>
<polygon fill="black" stroke="black" points="2134.86,-1378.31 2138.21,-1368.26 2129.32,-1374.03 2134.86,-1378.31"/>
</g>
<!-- PIG_2bchEYJ5NhrkQD7r -->
<g id="node7" class="node">
<title>PIG_2bchEYJ5NhrkQD7r</title>
<g id="a_node7"><a xlink:href="https://pool.pm/cbf096ed812bdafc8b000886cf7b1ccd4e430e78dc579c7f25a155d3.PIG@2bchEYJ5NhrkQD7r" xlink:title="PIG@2bchEYJ5NhrkQD7r\nasset1nl96...ust0rl46">
<polygon fill="none" stroke="black" points="1933,-432 1564,-432 1564,0 1933,0 1933,-432"/>
<image xlink:href="images/PIG@2bchEYJ5NhrkQD7r.png" width="369px" height="432px" preserveAspectRatio="xMinYMin meet" x="1564" y="-432"/>
<text text-anchor="middle" x="1748.5" y="-420.8" font-family="Times-Roman" font-size="14.00">PIG@2bchEYJ5NhrkQD7r</text>
<text text-anchor="middle" x="1748.5" y="-405.8" font-family="Times-Roman" font-size="14.00">asset1nl96...ust0rl46</text>
</a>
</g>
</g>
<!-- PIG_2MjEeHU9BtbChf73 -->
<g id="node8" class="node">
<title>PIG_2MjEeHU9BtbChf73</title>
<g id="a_node8"><a xlink:href="https://pool.pm/cbf096ed812bdafc8b000886cf7b1ccd4e430e78dc579c7f25a155d3.PIG@2MjEeHU9BtbChf73" xlink:title="PIG@2MjEeHU9BtbChf73\nasset1laup...g5y7peev">
<polygon fill="none" stroke="black" points="1676,-900 1307,-900 1307,-468 1676,-468 1676,-900"/>
<image xlink:href="images/PIG@2MjEeHU9BtbChf73.png" width="369px" height="432px" preserveAspectRatio="xMinYMin meet" x="1307" y="-900"/>
<text text-anchor="middle" x="1491.5" y="-888.8" font-family="Times-Roman" font-size="14.00">PIG@2MjEeHU9BtbChf73</text>
<text text-anchor="middle" x="1491.5" y="-873.8" font-family="Times-Roman" font-size="14.00">asset1laup...g5y7peev</text>
</a>
</g>
</g>
<!-- PIG_2MjEeHU9BtbChf73&#45;&gt;PIG_2bchEYJ5NhrkQD7r -->
<g id="edge5" class="edge">
<title>PIG_2MjEeHU9BtbChf73&#45;&gt;PIG_2bchEYJ5NhrkQD7r</title>
<path fill="none" stroke="black" d="M1610.22,-467.73C1615.1,-458.88 1620,-449.99 1624.9,-441.12"/>
<polygon fill="black" stroke="black" points="1628.02,-442.7 1629.78,-432.26 1621.89,-439.32 1628.02,-442.7"/>
</g>
<!-- PIG_2bZ6gpXJhcJHXQZS -->
<g id="node9" class="node">
<title>PIG_2bZ6gpXJhcJHXQZS</title>
<g id="a_node9"><a xlink:href="https://pool.pm/cbf096ed812bdafc8b000886cf7b1ccd4e430e78dc579c7f25a155d3.PIG@2bZ6gpXJhcJHXQZS" xlink:title="PIG@2bZ6gpXJhcJHXQZS\nasset1nldg...3luedk8e">
<polygon fill="none" stroke="black" points="2063,-900 1694,-900 1694,-468 2063,-468 2063,-900"/>
<image xlink:href="images/PIG@2bZ6gpXJhcJHXQZS.png" width="369px" height="432px" preserveAspectRatio="xMinYMin meet" x="1694" y="-900"/>
<text text-anchor="middle" x="1878.5" y="-888.8" font-family="Times-Roman" font-size="14.00">PIG@2bZ6gpXJhcJHXQZS</text>
<text text-anchor="middle" x="1878.5" y="-873.8" font-family="Times-Roman" font-size="14.00">asset1nldg...3luedk8e</text>
</a>
</g>
</g>
<!-- PIG_2bZ6gpXJhcJHXQZS&#45;&gt;PIG_2bchEYJ5NhrkQD7r -->
<g id="edge6" class="edge">
<title>PIG_2bZ6gpXJhcJHXQZS&#45;&gt;PIG_2bchEYJ5NhrkQD7r</title>
<path fill="none" stroke="black" d="M1818.45,-467.73C1816.05,-459.16 1813.65,-450.55 1811.26,-441.95"/>
<polygon fill="black" stroke="black" points="1814.61,-440.95 1808.55,-432.26 1807.87,-442.83 1814.61,-440.95"/>
</g>
<!-- PIG_2KRERCB6hHahWBvQ -->
<g id="node10" class="node">
<title>PIG_2KRERCB6hHahWBvQ</title>
<g id="a_node10"><a xlink:href="https://pool.pm/cbf096ed812bdafc8b000886cf7b1ccd4e430e78dc579c7f25a155d3.PIG@2KRERCB6hHahWBvQ" xlink:title="PIG@2KRERCB6hHahWBvQ\nasset1v0s4...afukq0zt">
<polygon fill="none" stroke="black" points="3949,-1368 3580,-1368 3580,-936 3949,-936 3949,-1368"/>
<image xlink:href="images/PIG@2KRERCB6hHahWBvQ.png" width="369px" height="432px" preserveAspectRatio="xMinYMin meet" x="3580" y="-1368"/>
<text text-anchor="middle" x="3764.5" y="-1356.8" font-family="Times-Roman" font-size="14.00">PIG@2KRERCB6hHahWBvQ</text>
<text text-anchor="middle" x="3764.5" y="-1341.8" font-family="Times-Roman" font-size="14.00">asset1v0s4...afukq0zt</text>
</a>
</g>
</g>
<!-- PIG_2KQoATYSaEeSz1Gj -->
<g id="node11" class="node">
<title>PIG_2KQoATYSaEeSz1Gj</title>
<g id="a_node11"><a xlink:href="https://pool.pm/cbf096ed812bdafc8b000886cf7b1ccd4e430e78dc579c7f25a155d3.PIG@2KQoATYSaEeSz1Gj" xlink:title="PIG@2KQoATYSaEeSz1Gj\nasset144ud...ung4x96s">
<polygon fill="none" stroke="black" points="3756,-1836 3387,-1836 3387,-1404 3756,-1404 3756,-1836"/>
<image xlink:href="images/PIG@2KQoATYSaEeSz1Gj.png" width="369px" height="432px" preserveAspectRatio="xMinYMin meet" x="3387" y="-1836"/>
<text text-anchor="middle" x="3571.5" y="-1824.8" font-family="Times-Roman" font-size="14.00">PIG@2KQoATYSaEeSz1Gj</text>
<text text-anchor="middle" x="3571.5" y="-1809.8" font-family="Times-Roman" font-size="14.00">asset144ud...ung4x96s</text>
</a>
</g>
</g>
<!-- PIG_2KQoATYSaEeSz1Gj&#45;&gt;PIG_2KRERCB6hHahWBvQ -->
<g id="edge7" class="edge">
<title>PIG_2KQoATYSaEeSz1Gj&#45;&gt;PIG_2KRERCB6hHahWBvQ</title>
<path fill="none" stroke="black" d="M3660.66,-1403.73C3664.25,-1395.06 3667.85,-1386.36 3671.45,-1377.68"/>
<polygon fill="black" stroke="black" points="3674.76,-1378.84 3675.35,-1368.26 3668.29,-1376.16 3674.76,-1378.84"/>
</g>
<!-- PIG_2PSwsewVLn3RqYNC -->
<g id="node12" class="node">
<title>PIG_2PSwsewVLn3RqYNC</title>
<g id="a_node12"><a xlink:href="https://pool.pm/cbf096ed812bdafc8b000886cf7b1ccd4e430e78dc579c7f25a155d3.PIG@2PSwsewVLn3RqYNC" xlink:title="PIG@2PSwsewVLn3RqYNC\nasset14vr5...at6kfk7v">
<polygon fill="none" stroke="black" points="4143,-1836 3774,-1836 3774,-1404 4143,-1404 4143,-1836"/>
<image xlink:href="images/PIG@2PSwsewVLn3RqYNC.png" width="369px" height="432px" preserveAspectRatio="xMinYMin meet" x="3774" y="-1836"/>
<text text-anchor="middle" x="3958.5" y="-1824.8" font-family="Times-Roman" font-size="14.00">PIG@2PSwsewVLn3RqYNC</text>
<text text-anchor="middle" x="3958.5" y="-1809.8" font-family="Times-Roman" font-size="14.00">asset14vr5...at6kfk7v</text>
</a>
</g>
</g>
<!-- PIG_2PSwsewVLn3RqYNC&#45;&gt;PIG_2KRERCB6hHahWBvQ -->
<g id="edge8" class="edge">
<title>PIG_2PSwsewVLn3RqYNC&#45;&gt;PIG_2KRERCB6hHahWBvQ</title>
<path fill="none" stroke="black" d="M3868.88,-1403.73C3865.27,-1395.06 3861.65,-1386.36 3858.03,-1377.68"/>
<polygon fill="black" stroke="black" points="3861.19,-1376.14 3854.11,-1368.26 3854.73,-1378.84 3861.19,-1376.14"/>
</g>
<!-- PIG_2PsY6nArmefr3obA -->
<g id="node13" class="node">
<title>PIG_2PsY6nArmefr3obA</title>
<g id="a_node13"><a xlink:href="https://pool.pm/cbf096ed812bdafc8b000886cf7b1ccd4e430e78dc579c7f25a155d3.PIG@2PsY6nArmefr3obA" xlink:title="PIG@2PsY6nArmefr3obA\nasset1ue6w...c6v46lg6">
<polygon fill="none" stroke="black" points="4530,-1836 4161,-1836 4161,-1404 4530,-1404 4530,-1836"/>
<image xlink:href="images/PIG@2PsY6nArmefr3obA.png" width="369px" height="432px" preserveAspectRatio="xMinYMin meet" x="4161" y="-1836"/>
<text text-anchor="middle" x="4345.5" y="-1824.8" font-family="Times-Roman" font-size="14.00">PIG@2PsY6nArmefr3obA</text>
<text text-anchor="middle" x="4345.5" y="-1809.8" font-family="Times-Roman" font-size="14.00">asset1ue6w...c6v46lg6</text>
</a>
</g>
</g>
<!-- PIG_2MoECnaKxL1YECSy&#45;&gt;PIG_2MjEeHU9BtbChf73 -->
<g id="edge9" class="edge">
<title>PIG_2MoECnaKxL1YECSy&#45;&gt;PIG_2MjEeHU9BtbChf73</title>
<path fill="none" stroke="black" d="M1613.1,-935.73C1608.85,-926.97 1604.59,-918.18 1600.33,-909.4"/>
<polygon fill="black" stroke="black" points="1603.41,-907.73 1595.9,-900.26 1597.11,-910.78 1603.41,-907.73"/>
</g>
<!-- PIG_2hpDmv397nHiTcJ1 -->
<g id="node15" class="node">
<title>PIG_2hpDmv397nHiTcJ1</title>
<g id="a_node15"><a xlink:href="https://pool.pm/cbf096ed812bdafc8b000886cf7b1ccd4e430e78dc579c7f25a155d3.PIG@2hpDmv397nHiTcJ1" xlink:title="PIG@2hpDmv397nHiTcJ1\nasset1naa3...f3fpzlzh">
<polygon fill="none" stroke="black" points="1689,-1836 1320,-1836 1320,-1404 1689,-1404 1689,-1836"/>
<image xlink:href="images/PIG@2hpDmv397nHiTcJ1.png" width="369px" height="432px" preserveAspectRatio="xMinYMin meet" x="1320" y="-1836"/>
<text text-anchor="middle" x="1504.5" y="-1824.8" font-family="Times-Roman" font-size="14.00">PIG@2hpDmv397nHiTcJ1</text>
<text text-anchor="middle" x="1504.5" y="-1809.8" font-family="Times-Roman" font-size="14.00">asset1naa3...f3fpzlzh</text>
</a>
</g>
</g>
<!-- PIG_2hpDmv397nHiTcJ1&#45;&gt;PIG_2MjEeHU9BtbChf73 -->
<g id="edge10" class="edge">
<title>PIG_2hpDmv397nHiTcJ1&#45;&gt;PIG_2MjEeHU9BtbChf73</title>
<path fill="none" stroke="black" d="M1501.51,-1403.84C1499.45,-1256.13 1496.73,-1060.46 1494.64,-910.57"/>
<polygon fill="black" stroke="black" points="1498.14,-910.26 1494.5,-900.31 1491.14,-910.36 1498.14,-910.26"/>
</g>
<!-- PIG_2hpDmv397nHiTcJ1&#45;&gt;PIG_2MoECnaKxL1YECSy -->
<g id="edge11" class="edge">
<title>PIG_2hpDmv397nHiTcJ1&#45;&gt;PIG_2MoECnaKxL1YECSy</title>
<path fill="none" stroke="black" d="M1602.89,-1403.73C1606.9,-1394.97 1610.92,-1386.18 1614.93,-1377.4"/>
<polygon fill="black" stroke="black" points="1618.14,-1378.81 1619.11,-1368.26 1611.77,-1375.9 1618.14,-1378.81"/>
</g>
<!-- PIG_2hpDmv397nHiTcJ1&#45;&gt;PIG_2hpDyjYye4vvx8qb -->
<g id="edge14" class="edge">
<title>PIG_2hpDmv397nHiTcJ1&#45;&gt;PIG_2hpDyjYye4vvx8qb</title>
<path fill="none" stroke="black" d="M1319.92,-1442.08C1299.76,-1427.82 1278.8,-1414.79 1257.5,-1404 1195.27,-1372.48 1163.2,-1402.08 1098.09,-1367.89"/>
<polygon fill="black" stroke="black" points="1099.56,-1364.7 1089.12,-1362.89 1096.15,-1370.82 1099.56,-1364.7"/>
</g>
<!-- PIG_nZ1q5HLDrfWLctF -->
<g id="node17" class="node">
<title>PIG_nZ1q5HLDrfWLctF</title>
<g id="a_node17"><a xlink:href="https://pool.pm/cbf096ed812bdafc8b000886cf7b1ccd4e430e78dc579c7f25a155d3.PIG@nZ1q5HLDrfWLctF" xlink:title="PIG@nZ1q5HLDrfWLctF\nasset1x5ca...vc6edeha">
<polygon fill="none" stroke="black" points="4917,-1836 4548,-1836 4548,-1404 4917,-1404 4917,-1836"/>
<image xlink:href="images/PIG@nZ1q5HLDrfWLctF.png" width="369px" height="432px" preserveAspectRatio="xMinYMin meet" x="4548" y="-1836"/>
<text text-anchor="middle" x="4732.5" y="-1824.8" font-family="Times-Roman" font-size="14.00">PIG@nZ1q5HLDrfWLctF</text>
<text text-anchor="middle" x="4732.5" y="-1809.8" font-family="Times-Roman" font-size="14.00">asset1x5ca...vc6edeha</text>
</a>
</g>
</g>
<!-- PIG_qRA9hBNPwuZSPJ3 -->
<g id="node18" class="node">
<title>PIG_qRA9hBNPwuZSPJ3</title>
<g id="a_node18"><a xlink:href="https://pool.pm/cbf096ed812bdafc8b000886cf7b1ccd4e430e78dc579c7f25a155d3.PIG@qRA9hBNPwuZSPJ3" xlink:title="PIG@qRA9hBNPwuZSPJ3\nasset1vjrz...0pa58vsj">
<polygon fill="none" stroke="black" points="5497,-1368 5128,-1368 5128,-936 5497,-936 5497,-1368"/>
<image xlink:href="images/PIG@qRA9hBNPwuZSPJ3.png" width="369px" height="432px" preserveAspectRatio="xMinYMin meet" x="5128" y="-1368"/>
<text text-anchor="middle" x="5312.5" y="-1356.8" font-family="Times-Roman" font-size="14.00">PIG@qRA9hBNPwuZSPJ3</text>
<text text-anchor="middle" x="5312.5" y="-1341.8" font-family="Times-Roman" font-size="14.00">asset1vjrz...0pa58vsj</text>
</a>
</g>
</g>
<!-- PIG_k9XsHmhMYy3jrFs -->
<g id="node19" class="node">
<title>PIG_k9XsHmhMYy3jrFs</title>
<g id="a_node19"><a xlink:href="https://pool.pm/cbf096ed812bdafc8b000886cf7b1ccd4e430e78dc579c7f25a155d3.PIG@k9XsHmhMYy3jrFs" xlink:title="PIG@k9XsHmhMYy3jrFs\nasset149y8...t53sfyfq">
<polygon fill="none" stroke="black" points="5304,-1836 4935,-1836 4935,-1404 5304,-1404 5304,-1836"/>
<image xlink:href="images/PIG@k9XsHmhMYy3jrFs.png" width="369px" height="432px" preserveAspectRatio="xMinYMin meet" x="4935" y="-1836"/>
<text text-anchor="middle" x="5119.5" y="-1824.8" font-family="Times-Roman" font-size="14.00">PIG@k9XsHmhMYy3jrFs</text>
<text text-anchor="middle" x="5119.5" y="-1809.8" font-family="Times-Roman" font-size="14.00">asset149y8...t53sfyfq</text>
</a>
</g>
</g>
<!-- PIG_k9XsHmhMYy3jrFs&#45;&gt;PIG_qRA9hBNPwuZSPJ3 -->
<g id="edge15" class="edge">
<title>PIG_k9XsHmhMYy3jrFs&#45;&gt;PIG_qRA9hBNPwuZSPJ3</title>
<path fill="none" stroke="black" d="M5208.66,-1403.73C5212.25,-1395.06 5215.85,-1386.36 5219.45,-1377.68"/>
<polygon fill="black" stroke="black" points="5222.76,-1378.84 5223.35,-1368.26 5216.29,-1376.16 5222.76,-1378.84"/>
</g>
<!-- PIG_qQeqYdS9aXBF7KZ -->
<g id="node20" class="node">
<title>PIG_qQeqYdS9aXBF7KZ</title>
<g id="a_node20"><a xlink:href="https://pool.pm/cbf096ed812bdafc8b000886cf7b1ccd4e430e78dc579c7f25a155d3.PIG@qQeqYdS9aXBF7KZ" xlink:title="PIG@qQeqYdS9aXBF7KZ\nasset19rus...jw5cp3d5">
<polygon fill="none" stroke="black" points="5691,-1836 5322,-1836 5322,-1404 5691,-1404 5691,-1836"/>
<image xlink:href="images/PIG@qQeqYdS9aXBF7KZ.png" width="369px" height="432px" preserveAspectRatio="xMinYMin meet" x="5322" y="-1836"/>
<text text-anchor="middle" x="5506.5" y="-1824.8" font-family="Times-Roman" font-size="14.00">PIG@qQeqYdS9aXBF7KZ</text>
<text text-anchor="middle" x="5506.5" y="-1809.8" font-family="Times-Roman" font-size="14.00">asset19rus...jw5cp3d5</text>
</a>
</g>
</g>
<!-- PIG_qQeqYdS9aXBF7KZ&#45;&gt;PIG_qRA9hBNPwuZSPJ3 -->
<g id="edge16" class="edge">
<title>PIG_qQeqYdS9aXBF7KZ&#45;&gt;PIG_qRA9hBNPwuZSPJ3</title>
<path fill="none" stroke="black" d="M5416.88,-1403.73C5413.27,-1395.06 5409.65,-1386.36 5406.03,-1377.68"/>
<polygon fill="black" stroke="black" points="5409.19,-1376.14 5402.11,-1368.26 5402.73,-1378.84 5409.19,-1376.14"/>
</g>
<!-- PIG_rbkZDq9vBb63AvY -->
<g id="node21" class="node">
<title>PIG_rbkZDq9vBb63AvY</title>
<g id="a_node21"><a xlink:href="https://pool.pm/cbf096ed812bdafc8b000886cf7b1ccd4e430e78dc579c7f25a155d3.PIG@rbkZDq9vBb63AvY" xlink:title="PIG@rbkZDq9vBb63AvY\nasset18ukm...9gp3k8ur">
<polygon fill="none" stroke="black" points="2569,-1836 2200,-1836 2200,-1404 2569,-1404 2569,-1836"/>
<image xlink:href="images/PIG@rbkZDq9vBb63AvY.png" width="369px" height="432px" preserveAspectRatio="xMinYMin meet" x="2200" y="-1836"/>
<text text-anchor="middle" x="2384.5" y="-1824.8" font-family="Times-Roman" font-size="14.00">PIG@rbkZDq9vBb63AvY</text>
<text text-anchor="middle" x="2384.5" y="-1809.8" font-family="Times-Roman" font-size="14.00">asset18ukm...9gp3k8ur</text>
</a>
</g>
</g>
<!-- PIG_rbkZDq9vBb63AvY&#45;&gt;PIG_rnUwPTeCq449ScB -->
<g id="edge30" class="edge">
<title>PIG_rbkZDq9vBb63AvY&#45;&gt;PIG_rnUwPTeCq449ScB</title>
<path fill="none" stroke="black" d="M2347.54,-1403.73C2346.09,-1395.25 2344.63,-1386.73 2343.17,-1378.23"/>
<polygon fill="black" stroke="black" points="2346.6,-1377.52 2341.45,-1368.26 2339.7,-1378.71 2346.6,-1377.52"/>
</g>
<!-- PIG_riy54ftzEdouzR2 -->
<g id="node25" class="node">
<title>PIG_riy54ftzEdouzR2</title>
<g id="a_node25"><a xlink:href="https://pool.pm/cbf096ed812bdafc8b000886cf7b1ccd4e430e78dc579c7f25a155d3.PIG@riy54ftzEdouzR2" xlink:title="PIG@riy54ftzEdouzR2\nasset1w8n8...amyewq96">
<polygon fill="none" stroke="black" points="2876,-1368 2507,-1368 2507,-936 2876,-936 2876,-1368"/>
<image xlink:href="images/PIG@riy54ftzEdouzR2.png" width="369px" height="432px" preserveAspectRatio="xMinYMin meet" x="2507" y="-1368"/>
<text text-anchor="middle" x="2691.5" y="-1356.8" font-family="Times-Roman" font-size="14.00">PIG@riy54ftzEdouzR2</text>
<text text-anchor="middle" x="2691.5" y="-1341.8" font-family="Times-Roman" font-size="14.00">asset1w8n8...amyewq96</text>
</a>
</g>
</g>
<!-- PIG_rbkZDq9vBb63AvY&#45;&gt;PIG_riy54ftzEdouzR2 -->
<g id="edge20" class="edge">
<title>PIG_rbkZDq9vBb63AvY&#45;&gt;PIG_riy54ftzEdouzR2</title>
<path fill="none" stroke="black" d="M2526.32,-1403.73C2532.21,-1394.79 2538.13,-1385.81 2544.03,-1376.84"/>
<polygon fill="black" stroke="black" points="2547.11,-1378.53 2549.69,-1368.26 2541.26,-1374.68 2547.11,-1378.53"/>
</g>
<!-- PIG_rnUKyJZLuZmdrN7 -->
<g id="node22" class="node">
<title>PIG_rnUKyJZLuZmdrN7</title>
<g id="a_node22"><a xlink:href="https://pool.pm/cbf096ed812bdafc8b000886cf7b1ccd4e430e78dc579c7f25a155d3.PIG@rnUKyJZLuZmdrN7" xlink:title="PIG@rnUKyJZLuZmdrN7\nasset1f9gz...9fl47klt">
<polygon fill="none" stroke="black" points="2513,-432 2144,-432 2144,0 2513,0 2513,-432"/>
<image xlink:href="images/PIG@rnUKyJZLuZmdrN7.png" width="369px" height="432px" preserveAspectRatio="xMinYMin meet" x="2144" y="-432"/>
<text text-anchor="middle" x="2328.5" y="-420.8" font-family="Times-Roman" font-size="14.00">PIG@rnUKyJZLuZmdrN7</text>
<text text-anchor="middle" x="2328.5" y="-405.8" font-family="Times-Roman" font-size="14.00">asset1f9gz...9fl47klt</text>
</a>
</g>
</g>
<!-- PIG_F5PEepBgz8Zczuh&#45;&gt;PIG_rnUKyJZLuZmdrN7 -->
<g id="edge17" class="edge">
<title>PIG_F5PEepBgz8Zczuh&#45;&gt;PIG_rnUKyJZLuZmdrN7</title>
<path fill="none" stroke="black" d="M2294.6,-467.73C2295.75,-459.25 2296.9,-450.73 2298.05,-442.23"/>
<polygon fill="black" stroke="black" points="2301.53,-442.64 2299.4,-432.26 2294.59,-441.7 2301.53,-442.64"/>
</g>
<!-- PIG_F1r26pPjWx3zWkK -->
<g id="node27" class="node">
<title>PIG_F1r26pPjWx3zWkK</title>
<g id="a_node27"><a xlink:href="https://pool.pm/cbf096ed812bdafc8b000886cf7b1ccd4e430e78dc579c7f25a155d3.PIG@F1r26pPjWx3zWkK" xlink:title="PIG@F1r26pPjWx3zWkK\nasset1q3mt...75tc9wcm">
<polygon fill="none" stroke="black" points="3026,-432 2657,-432 2657,0 3026,0 3026,-432"/>
<image xlink:href="images/PIG@F1r26pPjWx3zWkK.png" width="369px" height="432px" preserveAspectRatio="xMinYMin meet" x="2657" y="-432"/>
<text text-anchor="middle" x="2841.5" y="-420.8" font-family="Times-Roman" font-size="14.00">PIG@F1r26pPjWx3zWkK</text>
<text text-anchor="middle" x="2841.5" y="-405.8" font-family="Times-Roman" font-size="14.00">asset1q3mt...75tc9wcm</text>
</a>
</g>
</g>
<!-- PIG_F5PEepBgz8Zczuh&#45;&gt;PIG_F1r26pPjWx3zWkK -->
<g id="edge21" class="edge">
<title>PIG_F5PEepBgz8Zczuh&#45;&gt;PIG_F1r26pPjWx3zWkK</title>
<path fill="none" stroke="black" d="M2450.25,-508.25C2466.03,-494.4 2481.92,-480.83 2497.5,-468 2545.21,-428.71 2598.44,-388.32 2648.5,-351.73"/>
<polygon fill="black" stroke="black" points="2650.82,-354.38 2656.83,-345.66 2646.69,-348.72 2650.82,-354.38"/>
</g>
<!-- PIG_rnUwPTeCq449ScB&#45;&gt;PIG_rnUKyJZLuZmdrN7 -->
<g id="edge18" class="edge">
<title>PIG_rnUwPTeCq449ScB&#45;&gt;PIG_rnUKyJZLuZmdrN7</title>
<path fill="none" stroke="black" d="M2446.33,-935.66C2451.02,-923.85 2455.13,-911.93 2458.5,-900 2510.67,-715.22 2503.94,-654.55 2458.5,-468 2456.37,-459.25 2453.87,-450.46 2451.08,-441.68"/>
<polygon fill="black" stroke="black" points="2454.39,-440.56 2447.93,-432.17 2447.75,-442.76 2454.39,-440.56"/>
</g>
<!-- PIG_rnUwPTeCq449ScB&#45;&gt;PIG_F5PEepBgz8Zczuh -->
<g id="edge24" class="edge">
<title>PIG_rnUwPTeCq449ScB&#45;&gt;PIG_F5PEepBgz8Zczuh</title>
<path fill="none" stroke="black" d="M2286.48,-935.73C2285.77,-927.25 2285.06,-918.73 2284.35,-910.23"/>
<polygon fill="black" stroke="black" points="2287.84,-909.93 2283.52,-900.26 2280.86,-910.51 2287.84,-909.93"/>
</g>
<!-- PIG_txDVvjzBMvBqKE3 -->
<g id="node28" class="node">
<title>PIG_txDVvjzBMvBqKE3</title>
<g id="a_node28"><a xlink:href="https://pool.pm/cbf096ed812bdafc8b000886cf7b1ccd4e430e78dc579c7f25a155d3.PIG@txDVvjzBMvBqKE3" xlink:title="PIG@txDVvjzBMvBqKE3\nasset1lypt...lmwq5ux7">
<polygon fill="none" stroke="black" points="2876,-900 2507,-900 2507,-468 2876,-468 2876,-900"/>
<image xlink:href="images/PIG@txDVvjzBMvBqKE3.png" width="369px" height="432px" preserveAspectRatio="xMinYMin meet" x="2507" y="-900"/>
<text text-anchor="middle" x="2691.5" y="-888.8" font-family="Times-Roman" font-size="14.00">PIG@txDVvjzBMvBqKE3</text>
<text text-anchor="middle" x="2691.5" y="-873.8" font-family="Times-Roman" font-size="14.00">asset1lypt...lmwq5ux7</text>
</a>
</g>
</g>
<!-- PIG_rnUwPTeCq449ScB&#45;&gt;PIG_txDVvjzBMvBqKE3 -->
<g id="edge25" class="edge">
<title>PIG_rnUwPTeCq449ScB&#45;&gt;PIG_txDVvjzBMvBqKE3</title>
<path fill="none" stroke="black" d="M2483.27,-935.73C2490.93,-926.51 2498.62,-917.25 2506.29,-908.01"/>
<polygon fill="black" stroke="black" points="2509.04,-910.19 2512.73,-900.26 2503.65,-905.71 2509.04,-910.19"/>
</g>
<!-- PIG_Z7okXK5RWj79vr4 -->
<g id="node26" class="node">
<title>PIG_Z7okXK5RWj79vr4</title>
<g id="a_node26"><a xlink:href="https://pool.pm/cbf096ed812bdafc8b000886cf7b1ccd4e430e78dc579c7f25a155d3.PIG@Z7okXK5RWj79vr4" xlink:title="PIG@Z7okXK5RWj79vr4\nasset1mz82...afktqf57">
<polygon fill="none" stroke="black" points="2982,-1836 2613,-1836 2613,-1404 2982,-1404 2982,-1836"/>
<image xlink:href="images/PIG@Z7okXK5RWj79vr4.png" width="369px" height="432px" preserveAspectRatio="xMinYMin meet" x="2613" y="-1836"/>
<text text-anchor="middle" x="2797.5" y="-1824.8" font-family="Times-Roman" font-size="14.00">PIG@Z7okXK5RWj79vr4</text>
<text text-anchor="middle" x="2797.5" y="-1809.8" font-family="Times-Roman" font-size="14.00">asset1mz82...afktqf57</text>
</a>
</g>
</g>
<!-- PIG_Z7okXK5RWj79vr4&#45;&gt;PIG_riy54ftzEdouzR2 -->
<g id="edge19" class="edge">
<title>PIG_Z7okXK5RWj79vr4&#45;&gt;PIG_riy54ftzEdouzR2</title>
<path fill="none" stroke="black" d="M2748.53,-1403.73C2746.6,-1395.25 2744.67,-1386.73 2742.73,-1378.23"/>
<polygon fill="black" stroke="black" points="2746.1,-1377.23 2740.46,-1368.26 2739.27,-1378.79 2746.1,-1377.23"/>
</g>
<!-- PIG_Z7okXK5RWj79vr4&#45;&gt;PIG_F1r26pPjWx3zWkK -->
<g id="edge22" class="edge">
<title>PIG_Z7okXK5RWj79vr4&#45;&gt;PIG_F1r26pPjWx3zWkK</title>
<path fill="none" stroke="black" d="M2877.17,-1403.88C2880.02,-1391.84 2882.51,-1379.82 2884.5,-1368 2950.92,-973.55 2918.39,-866.56 2884.5,-468 2883.77,-459.44 2882.91,-450.73 2881.93,-441.95"/>
<polygon fill="black" stroke="black" points="2885.4,-441.53 2880.78,-432 2878.45,-442.34 2885.4,-441.53"/>
</g>
<!-- PIG_txE73CZMM5xiqMQ -->
<g id="node29" class="node">
<title>PIG_txE73CZMM5xiqMQ</title>
<g id="a_node29"><a xlink:href="https://pool.pm/cbf096ed812bdafc8b000886cf7b1ccd4e430e78dc579c7f25a155d3.PIG@txE73CZMM5xiqMQ" xlink:title="PIG@txE73CZMM5xiqMQ\nasset12dla...a4g3wqwl">
<polygon fill="none" stroke="black" points="3302,-1368 2933,-1368 2933,-936 3302,-936 3302,-1368"/>
<image xlink:href="images/PIG@txE73CZMM5xiqMQ.png" width="369px" height="432px" preserveAspectRatio="xMinYMin meet" x="2933" y="-1368"/>
<text text-anchor="middle" x="3117.5" y="-1356.8" font-family="Times-Roman" font-size="14.00">PIG@txE73CZMM5xiqMQ</text>
<text text-anchor="middle" x="3117.5" y="-1341.8" font-family="Times-Roman" font-size="14.00">asset12dla...a4g3wqwl</text>
</a>
</g>
</g>
<!-- PIG_Z7okXK5RWj79vr4&#45;&gt;PIG_txE73CZMM5xiqMQ -->
<g id="edge27" class="edge">
<title>PIG_Z7okXK5RWj79vr4&#45;&gt;PIG_txE73CZMM5xiqMQ</title>
<path fill="none" stroke="black" d="M2945.32,-1403.73C2951.53,-1394.69 2957.76,-1385.62 2963.98,-1376.57"/>
<polygon fill="black" stroke="black" points="2966.91,-1378.48 2969.68,-1368.26 2961.14,-1374.52 2966.91,-1378.48"/>
</g>
<!-- PIG_txE73CZMM5xiqMQ&#45;&gt;PIG_txDVvjzBMvBqKE3 -->
<g id="edge26" class="edge">
<title>PIG_txE73CZMM5xiqMQ&#45;&gt;PIG_txDVvjzBMvBqKE3</title>
<path fill="none" stroke="black" d="M2932.82,-948.98C2916.4,-931.02 2899.75,-912.81 2883.28,-894.79"/>
<polygon fill="black" stroke="black" points="2885.56,-892.1 2876.23,-887.08 2880.39,-896.82 2885.56,-892.1"/>
</g>
<!-- PIG_vhoZ8kwPwS8cbBL -->
<g id="node30" class="node">
<title>PIG_vhoZ8kwPwS8cbBL</title>
<g id="a_node30"><a xlink:href="https://pool.pm/cbf096ed812bdafc8b000886cf7b1ccd4e430e78dc579c7f25a155d3.PIG@vhoZ8kwPwS8cbBL" xlink:title="PIG@vhoZ8kwPwS8cbBL\nasset1nq2z...ywg8g83s">
<polygon fill="none" stroke="black" points="3369,-1836 3000,-1836 3000,-1404 3369,-1404 3369,-1836"/>
<image xlink:href="images/PIG@vhoZ8kwPwS8cbBL.png" width="369px" height="432px" preserveAspectRatio="xMinYMin meet" x="3000" y="-1836"/>
<text text-anchor="middle" x="3184.5" y="-1824.8" font-family="Times-Roman" font-size="14.00">PIG@vhoZ8kwPwS8cbBL</text>
<text text-anchor="middle" x="3184.5" y="-1809.8" font-family="Times-Roman" font-size="14.00">asset1nq2z...ywg8g83s</text>
</a>
</g>
</g>
<!-- PIG_vhoZ8kwPwS8cbBL&#45;&gt;PIG_txE73CZMM5xiqMQ -->
<g id="edge28" class="edge">
<title>PIG_vhoZ8kwPwS8cbBL&#45;&gt;PIG_txE73CZMM5xiqMQ</title>
<path fill="none" stroke="black" d="M3153.55,-1403.73C3152.33,-1395.25 3151.11,-1386.73 3149.88,-1378.23"/>
<polygon fill="black" stroke="black" points="3153.34,-1377.66 3148.45,-1368.26 3146.41,-1378.65 3153.34,-1377.66"/>
</g>
</g>
</svg>
